<?xml version="1.0" standalone="no"?>
<!DOCTYPE svg PUBLIC "-//W3C//DTD SVG 20010904//EN"
 "http://www.w3.org/TR/2001/REC-SVG-20010904/DTD/svg10.dtd">
<svg version="1.0" xmlns="http://www.w3.org/2000/svg"
 width="32.000000pt" height="32.000000pt" viewBox="0 0 32.000000 32.000000"
 preserveAspectRatio="xMidYMid meet">

<g transform="translate(0.000000,32.000000) scale(0.100000,-0.100000)"
fill="#000000" stroke="none">
<path d="M80 205 c0 -25 4 -35 16 -35 18 0 11 -34 -13 -62 -11 -12 -12 -18 -2
-24 8 -4 21 3 36 20 18 21 23 39 23 82 0 53 0 54 -30 54 -28 0 -30 -3 -30 -35z"/>
<path d="M180 205 c0 -24 5 -35 15 -35 20 0 19 -34 -1 -54 -20 -21 -9 -39 16
-26 22 12 40 61 40 111 0 38 -1 39 -35 39 -33 0 -35 -2 -35 -35z"/>
</g>
</svg>
